<?xml version="1.0" standalone="no"?>
<!DOCTYPE svg PUBLIC "-//W3C//DTD SVG 20010904//EN"
 "http://www.w3.org/TR/2001/REC-SVG-20010904/DTD/svg10.dtd">
<svg version="1.0" xmlns="http://www.w3.org/2000/svg"
 width="800.000000pt" height="800.000000pt" viewBox="0 0 800.000000 800.000000"
 preserveAspectRatio="xMidYMid meet">

<g transform="translate(0.000000,800.000000) scale(0.100000,-0.100000)"
fill="#000000" stroke="none">
<path d="M4420 7669 c-23 -22 -52 -55 -63 -72 -24 -34 -57 -74 -97 -117 -14
-14 -38 -55 -54 -91 -15 -35 -32 -71 -37 -79 -12 -21 -37 -75 -64 -140 -42
-102 -54 -135 -69 -190 -8 -30 -22 -80 -31 -110 -26 -83 -46 -169 -54 -225 -4
-27 -12 -60 -19 -71 -6 -12 -9 -24 -6 -27 3 -3 -2 -27 -12 -54 -9 -26 -25 -70
-34 -96 -10 -27 -22 -53 -29 -60 -6 -6 -11 -15 -11 -19 0 -5 -15 -43 -34 -86
-19 -42 -51 -120 -71 -172 -20 -52 -48 -116 -61 -142 -13 -26 -24 -52 -24 -58
0 -6 -9 -23 -20 -38 -23 -31 -69 -152 -76 -197 -2 -16 -11 -55 -19 -85 -35
-123 -65 -285 -71 -383 l-7 -104 -231 -116 c-127 -64 -476 -241 -775 -393
l-544 -276 -108 47 c-69 30 -118 46 -133 43 -41 -8 -1399 -728 -1424 -754 -15
-17 -22 -38 -22 -65 0 -68 30 -88 207 -139 l152 -44 3 -880 3 -881 27 -51 c33
-63 91 -114 155 -137 62 -22 228 -50 252 -42 14 4 20 -4 30 -47 31 -137 147
-303 265 -382 73 -49 169 -78 592 -184 994 -249 1760 -386 2244 -399 505 -14
1106 71 1880 265 315 79 407 111 494 171 76 53 162 138 211 210 l46 68 147 12
c199 17 263 33 340 84 57 38 65 48 92 115 90 213 106 490 72 1182 -6 112 -6
182 1 194 12 25 37 143 37 179 0 15 -5 36 -12 46 -13 21 2 85 31 131 25 40 28
245 5 307 -22 58 -101 181 -142 223 -56 55 -223 170 -248 170 -5 0 -25 10 -44
23 -19 13 -51 29 -70 36 -45 17 -84 34 -90 41 -3 4 -30 15 -60 27 -31 11 -78
35 -105 52 -27 17 -54 31 -60 31 -7 0 -22 9 -35 20 -24 21 -24 18 0 135 8 39
11 109 7 201 -5 133 -7 145 -33 190 -16 27 -60 85 -99 129 -38 44 -92 106
-118 138 -27 31 -61 70 -75 86 -126 134 -227 296 -284 456 -68 188 -93 379
-67 510 5 28 12 64 15 80 6 34 14 71 43 195 11 47 22 96 25 110 2 14 18 81 34
150 16 69 35 159 42 200 7 41 16 89 21 105 19 67 40 361 34 470 -14 224 -46
336 -125 442 -52 68 -73 80 -107 58 l-26 -17 9 -147 c11 -194 8 -301 -11 -386
-8 -38 -24 -111 -35 -162 -11 -50 -28 -111 -38 -135 -11 -24 -30 -77 -42 -118
-12 -41 -35 -113 -52 -160 -46 -132 -53 -148 -118 -282 -29 -59 -75 -134 -101
-167 -27 -33 -49 -62 -49 -65 0 -3 -17 -34 -38 -68 -46 -78 -77 -143 -133
-278 -23 -58 -46 -110 -50 -116 -5 -6 -32 -22 -61 -37 -49 -25 -66 -27 -249
-35 -107 -5 -204 -14 -215 -20 -27 -15 -13 -18 146 -30 256 -20 325 -43 473
-156 48 -37 87 -63 87 -57 0 5 -41 52 -91 105 -73 77 -88 97 -74 102 9 4 89 4
176 1 l159 -5 0 28 c0 78 65 435 110 603 35 132 55 193 91 278 61 147 120 351
159 554 24 125 29 152 40 235 16 116 19 130 29 130 35 0 25 -331 -18 -570 -18
-105 -43 -216 -83 -380 -77 -314 -88 -402 -88 -697 l0 -223 -55 0 c-30 0 -55
-4 -55 -9 0 -5 18 -16 41 -25 90 -36 157 -93 216 -184 92 -140 159 -224 378
-472 79 -90 132 -177 123 -201 -3 -8 -25 -21 -48 -29 -23 -8 -60 -30 -83 -50
-39 -35 -41 -40 -41 -92 0 -103 82 -198 207 -239 58 -19 68 -25 65 -43 -2 -11
-10 -22 -19 -24 -27 -5 -170 97 -251 180 -43 44 -78 73 -78 65 0 -31 25 -86
71 -154 27 -40 44 -73 37 -73 -33 0 -248 209 -319 311 -23 32 -44 57 -46 55
-8 -7 57 -138 98 -200 75 -110 178 -225 301 -334 127 -113 133 -127 39 -101
-178 48 -367 151 -525 284 -106 90 -79 38 47 -88 101 -103 213 -191 307 -243
126 -69 263 -188 276 -238 10 -42 -2 -49 -75 -42 -80 8 -97 3 -116 -35 -20
-37 -20 -36 15 -44 24 -5 43 -26 94 -103 98 -149 198 -232 261 -216 34 8 69
52 115 143 63 126 100 145 155 80 34 -41 40 -71 25 -125 -26 -92 -110 -144
-233 -144 -47 0 -60 -4 -86 -29 -24 -22 -30 -36 -26 -53 2 -13 9 -52 15 -87
19 -129 92 -240 199 -305 94 -58 99 -66 126 -221 13 -75 25 -139 28 -141 2 -3
10 17 17 43 20 75 80 212 122 280 29 46 50 67 82 82 23 12 47 21 52 21 5 0 27
12 47 26 21 14 41 24 44 21 9 -9 3 -460 -7 -547 -31 -263 -62 -421 -108 -545
-14 -38 -41 -96 -59 -127 -94 -161 -167 -192 -448 -189 -115 2 -394 -16 -770
-49 -66 -6 -385 -31 -710 -56 -565 -44 -597 -45 -750 -34 -88 6 -179 18 -202
26 -70 25 -73 36 -73 260 l0 196 34 34 c40 40 50 41 239 18 99 -13 175 -15
305 -11 l173 7 52 -41 c341 -265 440 -326 615 -379 119 -36 316 -20 457 36 22
9 58 23 80 32 122 48 259 154 417 324 198 213 232 246 276 258 88 27 160 -16
218 -132 19 -37 37 -68 40 -68 21 0 -38 198 -79 268 -61 101 -140 118 -237 51
-48 -34 -184 -154 -310 -273 -285 -271 -564 -403 -774 -367 -87 15 -150 47
-345 175 -86 56 -188 122 -228 145 -97 58 -135 103 -198 235 -130 276 -313
631 -374 726 l-35 55 3 106 3 106 -69 38 c-37 21 -84 50 -103 65 -19 15 -91
60 -159 101 -68 41 -140 84 -160 96 -20 12 -58 34 -86 49 -27 14 -53 32 -57
38 -4 6 -14 42 -23 81 -9 38 -21 79 -26 90 -12 27 -63 244 -78 330 -7 39 -18
99 -26 135 -8 36 -23 110 -35 165 -26 124 -48 228 -60 280 -51 221 -95 476
-111 642 -27 277 36 574 195 926 14 31 37 82 51 112 14 31 25 58 25 60 0 2 11
28 24 57 58 130 124 332 266 813 47 159 71 228 99 283 30 59 46 55 37 -10 -30
-217 -50 -484 -41 -548 3 -25 21 -110 40 -190 51 -219 59 -293 59 -530 -1
-231 -9 -296 -61 -453 -38 -113 -86 -182 -247 -347 -153 -157 -206 -229 -237
-317 -25 -72 -17 -102 12 -47 85 162 259 311 439 379 41 15 79 32 85 36 5 5
15 9 23 9 26 0 128 69 177 119 26 27 60 73 76 102 l29 52 0 271 c0 149 -5 309
-10 356 -20 161 -32 245 -40 275 -4 17 -13 57 -20 90 -7 33 -16 69 -20 80 -4
11 -17 46 -29 77 -42 107 -51 169 -51 361 0 100 4 200 9 222 6 22 11 56 11 76
0 19 5 40 11 46 16 16 39 179 39 281 0 79 -3 99 -21 123 -31 44 -75 40 -129
-12z m-950 -2787 c0 -32 4 -62 9 -67 5 -6 11 -32 13 -60 3 -27 14 -84 25 -125
12 -41 24 -97 27 -125 22 -167 78 -346 126 -400 9 -11 26 -56 37 -100 11 -44
62 -243 113 -443 51 -202 89 -367 84 -371 -5 -4 -147 -42 -315 -85 -286 -71
-584 -158 -602 -175 -4 -4 41 3 100 15 60 13 279 59 487 103 l380 81 170 -102
c94 -56 192 -116 218 -135 26 -18 52 -33 58 -33 5 0 19 -8 29 -17 49 -46 68
-61 89 -72 17 -9 22 -20 22 -54 0 -23 6 -52 13 -64 89 -158 125 -232 171 -351
19 -50 50 -124 69 -164 68 -147 194 -475 185 -483 -2 -3 -64 -7 -138 -11 -108
-5 -168 -2 -299 15 -167 22 -212 21 -244 -7 -21 -18 -27 -13 -52 48 -64 152
-187 291 -311 352 -65 31 -75 33 -174 33 -127 -1 -186 -20 -275 -93 -195 -157
-310 -440 -303 -749 2 -130 -4 -143 -66 -143 -22 0 -308 47 -634 104 -607 106
-617 109 -642 156 -5 9 -13 70 -20 135 -28 305 -125 506 -282 584 -127 64
-259 32 -370 -88 -98 -105 -151 -246 -164 -429 -8 -107 0 -102 -130 -77 -92
17 -144 49 -168 100 -16 32 -18 70 -20 262 -1 216 0 224 19 229 443 111 471
124 147 68 -174 -29 -169 -29 -167 -2 1 21 20 28 266 90 211 54 250 67 194 62
-38 -3 -144 -20 -235 -36 -91 -17 -178 -33 -195 -35 l-30 -5 0 551 c0 303 2
551 4 551 2 0 39 -10 82 -22 l79 -21 0 -324 c0 -301 -1 -323 -17 -323 -10 0
-36 -9 -59 -19 -51 -23 -71 -66 -58 -118 14 -55 46 -72 151 -83 l91 -10 792
149 c744 140 795 151 819 175 l26 26 3 583 c2 543 1 584 -16 611 -13 23 -50
44 -156 92 -116 52 -136 63 -120 72 10 5 143 65 294 132 151 67 277 124 280
127 22 21 -255 -79 -470 -169 -91 -39 -174 -70 -184 -70 -63 2 -5 34 398 213
240 106 434 194 432 196 -10 11 -393 -139 -729 -284 l-199 -86 -49 24 -49 24
713 362 c391 200 715 363 720 363 4 0 7 -26 7 -58z m-1380 -809 c219 -98 396
-181 392 -184 -4 -3 -86 -33 -182 -67 -151 -52 -1151 -401 -1295 -452 l-50
-17 -125 37 c-69 20 -209 61 -312 91 -103 30 -188 56 -188 59 0 8 1333 710
1348 710 8 0 193 -80 412 -177z m4490 97 c-6 -4 -11 -11 -11 -16 2 -18 -29
-44 -51 -44 -45 0 -51 17 -9 24 34 5 43 12 58 44 14 28 19 33 21 18 2 -10 -1
-22 -8 -26z m806 -995 c9 -14 14 -35 11 -48 -28 -111 -29 -119 -17 -147 7 -16
21 -30 31 -32 41 -6 17 -23 -36 -26 -47 -3 -58 0 -80 22 -22 22 -25 34 -25 91
0 62 16 121 41 152 18 21 57 15 75 -12z m-5028 -371 c62 -4 111 -8 109 -10 -2
-2 -217 -44 -478 -93 -261 -50 -594 -113 -741 -140 -247 -47 -408 -64 -408
-43 0 4 271 73 603 154 l602 147 100 -4 c55 -3 151 -7 213 -11z m4556 -86 c52
-87 137 -154 185 -143 35 7 84 54 119 113 34 59 40 40 9 -30 -27 -60 -78 -124
-107 -133 -22 -7 -36 -48 -45 -133 -10 -106 -20 -102 -25 9 l-5 107 -51 54
c-48 50 -81 102 -104 163 -13 35 2 31 24 -7z m-5447 -887 c41 -25 78 -90 99
-171 23 -91 15 -252 -16 -335 -60 -158 -179 -182 -254 -52 -94 161 -63 476 53
554 41 28 76 29 118 4z m2362 -82 c123 -91 185 -385 130 -618 -35 -147 -127
-261 -210 -261 -91 0 -155 68 -205 217 -35 102 -44 289 -20 403 17 83 72 204
108 237 62 58 137 67 197 22z m-1554 -614 c688 -121 886 -147 938 -121 12 6
17 4 17 -5 0 -8 16 -50 35 -93 l34 -79 -132 6 c-73 3 -403 16 -734 28 -332 13
-603 26 -603 29 0 3 19 17 43 32 61 39 128 106 176 177 34 50 46 60 64 56 12
-3 85 -16 162 -30z m3255 -242 c38 -38 93 -84 123 -103 31 -19 56 -38 57 -41
0 -3 -21 -4 -47 -3 -27 2 -302 13 -613 25 -311 12 -566 22 -568 24 -2 2 10 30
27 62 l30 60 128 -4 c79 -2 238 6 418 21 415 34 366 38 445 -41z"/>
<path d="M3025 4324 c-115 -46 -221 -89 -234 -96 -50 -27 -51 -39 -51 -593 0
-573 0 -571 63 -601 33 -16 42 -14 408 71 324 76 378 91 402 113 15 15 30 36
33 47 3 11 -24 133 -59 270 -36 138 -97 378 -138 535 -62 244 -77 289 -100
313 -44 44 -84 37 -324 -59z m260 -68 c15 -23 179 -750 173 -768 -2 -4 -48
133 -102 305 -55 171 -107 328 -117 347 -34 68 -55 70 -258 29 -51 -10 -96
-19 -100 -18 -3 0 66 29 154 64 178 71 225 79 250 41z"/>
<path d="M2718 2725 c-32 -350 -35 -849 -6 -1095 l13 -115 3 322 c4 498 -2
982 -10 888z"/>
<path d="M3551 2224 c-159 -34 -306 -141 -374 -272 -55 -106 -54 -124 2 -40
116 173 315 290 519 305 51 4 70 9 57 14 -31 12 -134 9 -204 -7z"/>
<path d="M1371 2196 c3 -3 33 -9 67 -15 165 -26 288 -135 358 -315 l24 -61 -6
45 c-28 207 -179 349 -373 350 -41 0 -72 -2 -70 -4z"/>
<path d="M4076 2126 c66 -45 125 -113 170 -198 19 -38 37 -68 39 -68 6 0 -21
73 -45 119 -31 61 -96 129 -152 157 -67 34 -71 30 -12 -10z"/>
<path d="M2010 1428 c11 -12 262 -68 370 -84 200 -29 412 -10 485 44 18 13 18
14 2 8 -122 -41 -437 -30 -817 30 -25 4 -43 4 -40 2z"/>
<path d="M1371 1640 c-25 -42 -34 -114 -21 -181 11 -59 46 -104 72 -94 51 20
73 196 32 265 -27 47 -58 51 -83 10z"/>
<path d="M3701 1513 c-70 -88 -65 -321 7 -387 69 -62 143 76 128 237 -14 147
-80 221 -135 150z"/>
<path d="M4181 6155 c0 -11 6 -78 15 -150 8 -75 12 -155 9 -191 -11 -102 -82
-216 -93 -149 -11 64 -66 194 -78 182 -2 -2 3 -31 11 -63 34 -129 46 -214 46
-342 1 -72 5 -130 9 -127 10 6 84 193 100 255 44 164 53 329 24 448 -29 116
-42 158 -43 137z"/>
<path d="M4690 5390 c0 -5 7 -10 15 -10 8 0 15 5 15 10 0 6 -7 10 -15 10 -8 0
-15 -4 -15 -10z"/>
<path d="M5369 4803 c-19 -16 -46 -43 -62 -60 -16 -18 -56 -50 -89 -72 -57
-37 -76 -44 -198 -71 -107 -24 -179 -76 -231 -166 -17 -30 -29 -58 -27 -64 2
-5 29 13 61 39 75 62 148 97 225 110 77 12 103 26 182 101 35 33 91 74 124 90
123 62 190 26 172 -93 -6 -39 -5 -41 9 -22 22 28 38 93 31 129 -18 94 -127
137 -197 79z"/>
<path d="M6171 4668 c-9 -26 0 -109 17 -148 9 -22 11 -18 11 33 1 48 5 62 27
83 24 25 24 27 7 40 -27 20 -52 17 -62 -8z"/>
<path d="M5716 4538 c-5 -31 -18 -53 -51 -86 -41 -41 -43 -44 -17 -38 64 16
103 73 94 137 -6 42 -18 36 -26 -13z"/>
<path d="M5135 4365 c-16 -7 -61 -41 -98 -74 -63 -57 -176 -121 -212 -121 -33
0 -12 -19 33 -30 37 -8 63 -24 105 -65 40 -38 71 -58 110 -71 51 -16 57 -16
98 0 25 9 60 32 79 50 50 46 76 58 112 51 17 -4 29 -3 27 1 -23 53 -97 195
-113 217 -23 32 -65 57 -93 56 -10 0 -31 -7 -48 -14z m135 -238 c0 -26 -66
-78 -106 -83 -41 -6 -124 28 -132 54 -4 15 44 17 53 2 13 -20 100 -11 136 14
40 28 49 31 49 13z"/>
<path d="M4820 3878 c1 -24 57 -144 90 -193 102 -148 247 -210 365 -156 l40
18 -60 7 c-130 16 -261 106 -375 257 -33 44 -60 74 -60 67z"/>
<path d="M164 3750 c-94 -66 -136 -191 -100 -293 14 -37 58 -109 64 -103 1 2
-4 29 -13 62 -34 130 -12 240 65 327 38 44 37 45 -16 7z"/>
<path d="M4943 2848 c3 -7 13 -33 23 -58 38 -97 151 -304 228 -420 204 -308
439 -513 663 -578 90 -27 200 -43 227 -32 23 9 26 7 -64 35 -149 45 -300 146
-353 237 -40 69 -60 158 -55 239 5 68 5 70 -16 64 -123 -39 -147 -38 -185 11
-17 22 -21 40 -21 102 0 41 5 92 12 113 6 22 9 42 5 45 -8 8 -70 7 -139 -1
-50 -7 -62 -4 -109 21 -52 29 -141 122 -187 197 -23 36 -39 50 -29 25z"/>
<path d="M6184 2406 c-9 -24 4 -48 23 -44 12 2 18 12 18 28 0 29 -32 41 -41
16z"/>
<path d="M6330 2365 c0 -18 5 -25 19 -25 20 0 31 17 24 38 -3 6 -13 12 -24 12
-14 0 -19 -7 -19 -25z"/>
<path d="M6467 2357 c-3 -8 -2 -20 3 -27 11 -18 42 -4 38 17 -4 22 -34 29 -41
10z"/>
<path d="M6592 2333 c2 -10 10 -18 18 -18 22 0 18 29 -3 33 -14 3 -18 -1 -15
-15z"/>
<path d="M6064 2266 c-11 -29 0 -51 26 -51 21 0 25 5 25 30 0 24 -5 31 -23 33
-13 2 -24 -3 -28 -12z"/>
<path d="M6251 2261 c-18 -11 -6 -61 14 -61 22 0 39 38 24 56 -13 16 -19 17
-38 5z"/>
<path d="M6395 2239 c-8 -25 7 -44 29 -36 21 8 21 43 0 51 -22 8 -22 8 -29
-15z"/>
<path d="M6534 2235 c-7 -18 3 -35 22 -35 8 0 14 10 14 25 0 27 -27 35 -36 10z"/>
<path d="M6667 2243 c-13 -12 -7 -33 8 -33 8 0 15 9 15 20 0 20 -11 26 -23 13z"/>
<path d="M6590 2110 c0 -13 5 -20 13 -17 6 2 12 10 12 17 0 7 -6 15 -12 18 -8
2 -13 -5 -13 -18z"/>
<path d="M6463 2094 c-8 -21 13 -42 28 -27 13 13 5 43 -11 43 -6 0 -13 -7 -17
-16z"/>
<path d="M6324 2075 c-4 -9 -2 -21 4 -27 15 -15 44 -1 40 19 -4 23 -36 29 -44
8z"/>
<path d="M6173 2054 c-3 -8 2 -23 11 -32 15 -15 17 -15 32 0 21 21 11 48 -16
48 -11 0 -23 -7 -27 -16z"/>
<path d="M6851 1608 c-91 -101 -215 -224 -286 -285 -52 -44 -58 -53 -46 -67
18 -21 166 -22 237 -2 27 8 74 19 105 26 120 24 279 124 279 176 0 56 -70 170
-126 204 -17 11 -46 20 -65 20 -28 0 -42 -10 -98 -72z"/>
<path d="M7437 1310 c-12 -63 -65 -159 -119 -217 -82 -87 -173 -139 -313 -179
l-50 -14 65 5 c126 12 239 52 308 110 44 36 98 150 112 234 12 71 9 126 -3 61z"/>
<path d="M890 1197 c0 -20 74 -160 119 -224 113 -161 288 -255 511 -277 l65
-6 -70 19 c-149 41 -250 92 -355 180 -97 81 -194 191 -249 281 -11 19 -21 31
-21 27z"/>
<path d="M894 975 c22 -94 98 -201 180 -252 51 -33 129 -59 197 -67 l54 -6
-52 19 c-145 54 -253 139 -342 271 -34 50 -42 58 -37 35z"/>
</g>
</svg>
